<?xml version="1.0" standalone="no"?>
<svg version="1.0" xmlns="http://www.w3.org/2000/svg"
 width="500pt" height="500pt" viewBox="0 0 500 500"
 preserveAspectRatio="xMidYMid meet">

<!-- Circle around the logo -->
<circle cx="250" cy="250" r="240" fill="transparent" stroke="#FEFEFA" stroke-width="10"/>

<!-- Original E3 Logo with white color -->
<g transform="translate(0.000000,500.000000) scale(0.100000,-0.100000)"
fill="#FEFEFA" stroke="none">
<path d="M1680 3067 c-13 -7 -35 -28 -47 -46 l-23 -34 0 -486 c0 -464 1 -487
20 -518 38 -63 39 -63 463 -63 284 0 386 3 395 12 19 19 16 222 -4 242 -13 14
-55 16 -304 16 -276 0 -290 1 -300 19 -13 25 -13 112 0 145 l9 26 283 2 283 3
0 115 0 115 -283 3 -283 2 -9 26 c-18 46 -12 132 10 154 19 19 33 20 309 20
254 0 290 2 295 16 11 30 7 219 -6 232 -18 18 -773 17 -808 -1z"/>
<path d="M2562 3068 c-13 -13 -17 -202 -6 -232 5 -14 41 -16 295 -16 276 0
290 -1 309 -20 22 -22 28 -108 10 -154 l-9 -26 -283 -2 -283 -3 0 -115 0 -115
283 -3 283 -2 9 -26 c13 -33 13 -120 0 -145 -10 -18 -24 -19 -300 -19 -249 0
-291 -2 -304 -16 -20 -20 -23 -223 -4 -242 9 -9 111 -12 395 -12 424 0 425 0
463 63 19 31 20 54 20 518 l0 486 -23 34 c-12 18 -34 39 -47 46 -35 18 -790
19 -808 1z"/>
</g>
</svg>